name 900006_25.mot
datacolumns 153
datarows 4
range 0.18333334 0.20833333
endheader

                time	           pelvis_tx	           pelvis_ty	           pelvis_tz	         pelvis_tilt	         pelvis_list	     pelvis_rotation	       hip_flexion_r	     hip_adduction_r	      hip_rotation_r	        knee_angle_r	       ankle_angle_r	    subtalar_angle_r	         mtp_angle_r	       hip_flexion_l	     hip_adduction_l	      hip_rotation_l	        knee_angle_l	       ankle_angle_l	    subtalar_angle_l	         mtp_angle_l	    lumbar_extension	      lumbar_bending	     lumbar_rotation	     ground_force_vx	     ground_force_vy	     ground_force_vz	     ground_force_px	     ground_force_py	     ground_force_pz	     ground_force_vx	     ground_force_vy	     ground_force_vz	     ground_force_px	     ground_force_py	     ground_force_pz	     ground_torque_x	     ground_torque_y	     ground_torque_z	     ground_torque_x	     ground_torque_y	     ground_torque_z	    ground_marker_px	    ground_marker_py	    ground_marker_pz	    ground_marker_px	    ground_marker_py	    ground_marker_pz	    ground_marker_px	    ground_marker_py	    ground_marker_pz	    ground_marker_px	    ground_marker_py	    ground_marker_pz	    ground_marker_px	    ground_marker_py	    ground_marker_pz	    ground_marker_px	    ground_marker_py	    ground_marker_pz	    ground_marker_px	    ground_marker_py	    ground_marker_pz	    ground_marker_px	    ground_marker_py	    ground_marker_pz	    ground_marker_px	    ground_marker_py	    ground_marker_pz	    ground_marker_px	    ground_marker_py	    ground_marker_pz	    ground_marker_px	    ground_marker_py	    ground_marker_pz	    ground_marker_px	    ground_marker_py	    ground_marker_pz	    ground_marker_px	    ground_marker_py	    ground_marker_pz	    ground_marker_px	    ground_marker_py	    ground_marker_pz	    ground_marker_px	    ground_marker_py	    ground_marker_pz	    ground_marker_px	    ground_marker_py	    ground_marker_pz	    ground_marker_px	    ground_marker_py	    ground_marker_pz	    ground_marker_px	    ground_marker_py	    ground_marker_pz	    ground_marker_px	    ground_marker_py	    ground_marker_pz	    ground_marker_px	    ground_marker_py	    ground_marker_pz	    ground_marker_px	    ground_marker_py	    ground_marker_pz	    ground_marker_px	    ground_marker_py	    ground_marker_pz	    ground_marker_px	    ground_marker_py	    ground_marker_pz	    ground_marker_px	    ground_marker_py	    ground_marker_pz	    ground_marker_px	    ground_marker_py	    ground_marker_pz	    ground_marker_px	    ground_marker_py	    ground_marker_pz	    ground_marker_px	    ground_marker_py	    ground_marker_pz	    ground_marker_px	    ground_marker_py	    ground_marker_pz	    ground_marker_px	    ground_marker_py	    ground_marker_pz	    ground_marker_px	    ground_marker_py	    ground_marker_pz	    ground_marker_px	    ground_marker_py	    ground_marker_pz	    ground_marker_px	    ground_marker_py	    ground_marker_pz	    ground_marker_px	    ground_marker_py	    ground_marker_pz	    ground_marker_px	    ground_marker_py	    ground_marker_pz	    ground_marker_px	    ground_marker_py	    ground_marker_pz	    ground_marker_px	    ground_marker_py	    ground_marker_pz	    ground_marker_px	    ground_marker_py	    ground_marker_pz	
          0.18333334	         -2.07376051	          0.83889067	          0.26712900	          3.37324142	          3.35884237	         -8.63577747	         -6.76634884	         -5.59894657	         -2.21031833	        -40.52840805	         -6.49241543	          0.00000000	          0.00000000	          7.70858192	          2.54702044	         -4.61812401	         -8.52039242	          0.02037450	          0.00000000	          0.00000000	         -3.11574173	         -0.19144075	          2.25222754	          0.00000000	          0.00000000	          0.00000000	         -1.71943115	          0.00000000	          0.31042920	        -32.31002315	        390.34597488	         17.24550398	         -2.04225708	          0.00000000	          0.20118597	          0.00000000	          0.00000000	          0.00000000	          0.00000000	          0.25852454	          0.00000000	         -2.10567665	          0.76684225	          0.25111443	         -2.12239933	          0.76169485	          0.30581164	         -2.08895421	          0.77198970	          0.19641724	         -2.20188093	          0.41592538	          0.33635163	         -2.09030700	          0.42305222	          0.20063038	         -2.43528390	          0.15231578	          0.31898639	         -2.05974030	          0.06579947	          0.20628583	         -2.07376051	          0.83889067	          0.26712900	         -2.09134054	          0.83500338	          0.37754479	         -2.05618024	          0.84277803	          0.15671323	         -2.24863887	          0.86593896	          0.26459697	         -2.24428892	          0.86728561	          0.21844621	         -2.19340181	          0.41388735	          0.39529279	         -2.06691575	          0.41758645	          0.14156963	         -2.17051554	          0.40975511	          0.26689881	         -2.09499383	          0.42118233	          0.26012936	         -2.44294453	          0.15685926	          0.35541332	         -2.06623125	          0.06466903	          0.17038544	         -2.43534422	          0.14282413	          0.28669193	         -2.06559181	          0.06652519	          0.23969314	         -2.08659458	          1.19423354	          0.24478325	         -2.07498884	          1.09279990	          0.24044175	         -2.19717550	          1.26210880	          0.24081600	         -2.39415455	          0.07259557	          0.33080286	         -1.96688509	          0.04778380	          0.20264401	         -2.04561901	          0.54092133	          0.37932417	         -1.97693884	          0.57478434	          0.13875414	         -2.10267067	          0.58607292	          0.40348077	         -2.01325870	          0.61802429	          0.19622774	         -2.11737514	          0.52836668	          0.39727226	         -2.01883960	          0.56047732	          0.20611295	         -2.26774812	          0.15910400	          0.36088130	         -2.07130361	          0.16506748	          0.07892495	         -2.33647037	          0.19504926	          0.33597273	         -2.07248902	          0.15835752	          0.15845157	         -2.09048009	          1.19280672	          0.30129847	         -2.07782364	          1.19614697	          0.19506776	
          0.19166666	         -2.06756878	          0.83914310	          0.26620898	          3.45480156	          3.29952550	         -8.72719479	         -6.02051115	         -5.61787128	         -2.49341726	        -42.01233292	         -7.21020937	          0.00000000	          0.00000000	          7.34298515	          2.62659073	         -4.82227468	         -8.87922764	          0.43071163	          0.00000000	          0.00000000	         -3.17614341	         -0.10539266	          2.19322062	          0.00000000	          0.00000000	          0.00000000	         -1.71656189	          0.00000000	          0.31083167	        -32.88233098	        401.75736118	         16.32347028	         -2.03889478	          0.00000000	          0.20119293	          0.00000000	          0.00000000	          0.00000000	          0.00000000	          0.37942883	          0.00000000	         -2.09956741	          0.76706880	          0.25019556	         -2.11638880	          0.76197642	          0.30486771	         -2.08274627	          0.77216119	          0.19552338	         -2.19128442	          0.41558355	          0.33660015	         -2.08807349	          0.42377982	          0.20039327	         -2.42681861	          0.15520109	          0.31813180	         -2.05924749	          0.06575131	          0.20638585	         -2.06756878	          0.83914310	          0.26620898	         -2.08529186	          0.83537340	          0.37655026	         -2.04984546	          0.84291279	          0.15586770	         -2.24286914	          0.86614585	          0.26385620	         -2.23788595	          0.86706519	          0.21721849	         -2.18277335	          0.41366485	          0.39549911	         -2.06249619	          0.41764840	          0.14127436	         -2.15918970	          0.40946200	          0.26678050	         -2.09223509	          0.42321506	          0.26139280	         -2.43492389	          0.16017351	          0.35440615	         -2.06582546	          0.06465502	          0.17050017	         -2.42503142	          0.14845049	          0.28516078	         -2.06498837	          0.06643223	          0.23981644	         -2.08008099	          1.19426072	          0.24383724	         -2.06841826	          1.09283412	          0.23948294	         -2.19092202	          1.26228213	          0.23910639	         -2.38782334	          0.07442538	          0.33158839	         -1.96671426	          0.04738008	          0.20299315	         -2.03664112	          0.54215437	          0.38009405	         -1.97140074	          0.57446694	          0.13778701	         -2.09407306	          0.58621162	          0.40345144	         -2.00681090	          0.61810714	          0.19537827	         -2.10804415	          0.52927065	          0.39735895	         -2.01357102	          0.56018394	          0.20589580	         -2.25974631	          0.15993972	          0.36237553	         -2.06992507	          0.16496585	          0.07898271	         -2.32466292	          0.19920468	          0.33656541	         -2.07099223	          0.15823959	          0.15858251	         -2.08409929	          1.19281006	          0.30032137	         -2.07119441	          1.19619751	          0.19416474	
          0.20000000	         -2.06146407	          0.83931667	          0.26535940	          3.54821491	          3.24731898	         -8.81413651	         -5.27827215	         -5.61321688	         -2.78436708	        -43.44356155	         -7.58846998	          0.00000000	          0.00000000	          6.94830704	          2.71599841	         -4.89254332	         -9.20230770	          0.84719825	          0.00000000	          0.00000000	         -3.29168725	         -0.00399310	          2.17763400	          0.00000000	          0.00000000	          0.00000000	         -1.71373059	          0.00000000	          0.31124661	        -33.44853839	        413.13822719	         15.72825427	         -2.03511926	          0.00000000	          0.20111690	          0.00000000	          0.00000000	          0.00000000	          0.00000000	          0.50766589	          0.00000000	         -2.09349251	          0.76717186	          0.24935667	         -2.11039948	          0.76212054	          0.30400619	         -2.07658553	          0.77222323	          0.19470716	         -2.18027139	          0.41543418	          0.33670974	         -2.08318686	          0.42417771	          0.20020044	         -2.41804314	          0.15790264	          0.31721163	         -2.05883169	          0.06571134	          0.20647897	         -2.06146407	          0.83931667	          0.26535940	         -2.07932091	          0.83564591	          0.37561232	         -2.04360723	          0.84298742	          0.15510650	         -2.23701620	          0.86612886	          0.26302996	         -2.23163939	          0.86683691	          0.21607693	         -2.17212963	          0.41346094	          0.39558846	         -2.05813575	          0.41767210	          0.14102589	         -2.14716887	          0.41035360	          0.26497215	         -2.08698964	          0.42337987	          0.26118797	         -2.42659664	          0.16332215	          0.35331863	         -2.06547666	          0.06465346	          0.17060450	         -2.41529083	          0.15217818	          0.28403541	         -2.06444407	          0.06629989	          0.23992907	         -2.07371950	          1.19437420	          0.24281870	         -2.06206942	          1.09294951	          0.23838642	         -2.18473887	          1.26251900	          0.23816878	         -2.38081741	          0.07655326	          0.33281004	         -1.96658909	          0.04702187	          0.20335153	         -2.02783227	          0.54345274	          0.38076887	         -1.96599662	          0.57418275	          0.13718410	         -2.08605385	          0.58632058	          0.40372100	         -2.00142479	          0.61834133	          0.19528440	         -2.09899068	          0.53026813	          0.39713854	         -2.00826478	          0.56024253	          0.20575176	         -2.25146842	          0.16081096	          0.36385486	         -2.06859159	          0.16486914	          0.07901661	         -2.31448293	          0.20187098	          0.33695698	         -2.06954741	          0.15815119	          0.15877764	         -2.07786417	          1.19286048	          0.29960561	         -2.06471658	          1.19636643	          0.19285147	
          0.20833333	         -2.05543232	          0.83943355	          0.26458105	          3.66061687	          3.19612455	         -8.89555264	         -4.55642605	         -5.58470726	         -3.04789734	        -44.80601120	         -7.64374590	          0.00000000	          0.00000000	          6.51622391	          2.80561566	         -4.84976816	         -9.49401188	          1.28117061	          0.00000000	          0.00000000	         -3.48741198	          0.12335555	          1.98531353	          0.00000000	          0.00000000	          0.00000000	         -1.71094946	          0.00000000	          0.31167438	        -34.00891158	        422.32708700	         15.80407992	         -2.03120996	          0.00000000	          0.20095119	          0.00000000	          0.00000000	          0.00000000	          0.00000000	          0.62043677	          0.00000000	         -2.08732057	          0.76716030	          0.24861251	         -2.10428405	          0.76213074	          0.30324656	         -2.07035708	          0.77218992	          0.19397846	         -2.17094207	          0.41520697	          0.33667049	         -2.07895088	          0.42546880	          0.19998860	         -2.40896511	          0.16038215	          0.31625524	         -2.05849075	          0.06568000	          0.20656130	         -2.05543232	          0.83943355	          0.26458105	         -2.07341051	          0.83585173	          0.37474105	         -2.03745389	          0.84301537	          0.15442108	         -2.23101401	          0.86585999	          0.26207513	         -2.22553039	          0.86661720	          0.21502724	         -2.16146564	          0.41328937	          0.39559755	         -2.05383134	          0.41765937	          0.14080012	         -2.13747692	          0.40952754	          0.26618022	         -2.08181405	          0.42392614	          0.26095796	         -2.41797757	          0.16627088	          0.35217667	         -2.06517792	          0.06466270	          0.17069353	         -2.40621090	          0.15401204	          0.28326395	         -2.06373644	          0.06628935	          0.24001935	         -2.06752753	          1.19447207	          0.24206707	         -2.05598354	          1.09304059	          0.23751637	         -2.17846441	          1.26280963	          0.23674257	         -2.37314463	          0.07892689	          0.33444154	         -1.96649396	          0.04671666	          0.20368859	         -2.01911950	          0.54483050	          0.38130230	         -1.96070945	          0.57394046	          0.13688074	         -2.07773900	          0.58709699	          0.40353319	         -1.99553144	          0.61871886	          0.19555086	         -2.09041500	          0.53085667	          0.39741510	         -2.00264335	          0.56064022	          0.20574053	         -2.24292397	          0.16172467	          0.36537591	         -2.06727648	          0.16477567	          0.07901444	         -2.30600858	          0.20297872	          0.33713675	         -2.06789112	          0.15804309	          0.15880156	         -2.07196164	          1.19285977	          0.29907787	         -2.05826569	          1.19654548	          0.19189855	
